<svg xmlns="http://www.w3.org/2000/svg" xmlns:xlink="http://www.w3.org/1999/xlink" version="1.1" id="layer" x="0px" y="0px" style="enable-background:new 0 0 652 652;" xml:space="preserve" viewBox="21 253 600 139.1">
<style type="text/css">
	.st0{fill:#ffffff;}
	.st1{fill:#E0000B;}
</style>
<polygon class="st0" points="21,333.2 21,330.3 30.4,330.3 30.4,259.8 21,259.8 21,257 51.5,257 51.5,259.8 41.8,259.8 41.8,330.3   51.5,330.3 51.5,333.2 "/>
<path class="st0" d="M54.2,333.2v-2.7h6.1v-40.1h-6.2v-2.5h2.1c2.3,0,4.5-0.1,6.7-0.3c2.1-0.2,4.2-0.5,6-0.8l0.1,13.2  c1.6-4.4,3.9-7.7,6.7-9.9c2.8-2.2,6.2-3.3,10.1-3.3c4,0,7,1.1,9.3,3.3c2.2,2.2,3.3,5.3,3.3,9.3v31.1h5.9v2.7H83.3v-2.7h6.4V299  c0-3-0.6-5.2-1.7-6.6c-1.2-1.4-2.9-2.2-5.3-2.2c-3.7,0-6.8,1.9-9.5,5.7c-2.7,3.8-4,8.5-4,14v20.5h6v2.7H54.2z"/>
<path class="st0" d="M142.3,318.9h2.7c-1.2,5-3.5,8.8-6.8,11.5c-3.4,2.7-7.6,4.1-12.6,4.1c-6.4,0-11.7-2.2-15.8-6.6  c-4.1-4.4-6.2-9.9-6.2-16.7c0-7,2.2-12.8,6.6-17.5c4.4-4.7,10-7,16.7-7c4.9,0,9,1.2,12.1,3.6c3.2,2.4,4.7,5.4,4.7,8.9  c0,1.8-0.5,3.2-1.5,4.3c-1,1.1-2.4,1.6-4.1,1.6c-1.4,0-2.6-0.5-3.5-1.5c-0.9-1-1.4-2.2-1.4-3.7c0-1.4,0.6-2.8,1.7-4.1  c1.1-1.4,1.7-2.2,1.7-2.6c0-1.1-0.9-2.1-2.8-2.9c-1.9-0.8-4.1-1.2-6.8-1.2c-4.6,0-7.9,1.7-10,5.1c-2.1,3.4-3.1,8.9-3.1,16.4  c0,7.6,1,13,2.9,16.3c1.9,3.3,5.1,4.9,9.4,4.9c3.9,0,7.3-1.1,10.1-3.4C139.2,326.2,141.2,323,142.3,318.9"/>
<path class="st0" d="M144.5,333.2v-2.7h7.5v-40.1h-7.3v-2.5c2.9,0,5.7-0.1,8.4-0.3c2.7-0.2,5.2-0.4,7.6-0.8v11.6  c1.9-3.8,3.9-6.6,6.1-8.5c2.2-1.9,4.6-2.8,7.2-2.8c2.1,0,3.7,0.5,4.8,1.6c1.1,1,1.7,2.5,1.7,4.5c0,1.5-0.4,2.6-1.3,3.5  c-0.9,0.9-2,1.3-3.5,1.3c-1.3,0-2.4-0.5-3.4-1.5c-0.9-1-1.4-2.1-1.4-3.4c0-0.3,0-0.7,0.1-1.1c0.1-0.4,0.1-0.7,0.1-0.8  c0-0.3,0-0.5-0.1-0.6c-0.1-0.1-0.2-0.2-0.3-0.2c-2,0-4.2,1.9-6.4,5.6c-2.2,3.7-3.4,7.5-3.4,11.4v23h8.3v2.7H144.5z"/>
<path class="st0" d="M189.7,303.6L189.7,303.6H211v-1.2c0-4.8-0.8-8.3-2.3-10.4c-1.5-2.1-4-3.2-7.5-3.2c-3.6,0-6.3,1.2-8.2,3.7  C191.1,295,190,298.7,189.7,303.6 M189.4,306.9v3.5c0,7.8,1,13.3,2.9,16.4s5.3,4.7,10.1,4.7c4,0,7.5-1.1,10.3-3.4  c2.8-2.3,4.8-5.4,5.8-9.5h2.5c-1.1,5.3-3.3,9.3-6.7,12c-3.4,2.7-7.8,4-13.3,4c-6.3,0-11.5-2.2-15.8-6.6c-4.3-4.4-6.4-9.8-6.4-16.1  c0-7,2.2-12.9,6.5-17.8c4.3-4.9,9.7-7.3,16-7.3c5.9,0,10.5,1.7,13.9,5.2c3.4,3.5,5.4,8.5,5.9,15H189.4z"/>
<path class="st0" d="M259.9,319.3L259.9,319.3v-15.9c0-3.7-1.3-7-4-9.7c-2.6-2.8-5.7-4.2-9.3-4.2c-4.1,0-7,1.6-8.7,4.8  c-1.7,3.2-2.6,8.6-2.6,16.2c0,8,0.9,13.6,2.7,16.8s4.8,4.8,8.9,4.8c3.3,0,6.3-1.3,8.9-4C258.6,325.4,259.9,322.5,259.9,319.3   M268.7,253.9v76.5h6.2v2.7c-3.4,0-6.3,0.1-8.6,0.3c-2.3,0.2-4.4,0.5-6.2,0.9v-8.4c-1.5,2.8-3.5,4.9-6,6.4c-2.5,1.5-5.3,2.3-8.3,2.3  c-5.8,0-10.7-2.3-14.7-6.9c-4-4.6-6-10.3-6-17.1c0-6.7,2-12.4,6-16.9c4-4.6,8.9-6.8,14.8-6.8c3.3,0,6.1,0.7,8.5,2.2  c2.4,1.5,4.2,3.7,5.5,6.6v-38.2h-7.4v-2.4h1.8c2.4,0,4.8-0.1,7.1-0.3C263.8,254.6,266.2,254.3,268.7,253.9z"/>
<path class="st0" d="M276.9,333.2v-2.7h7.7v-40.1h-7.2v-2.5h2.2c2.4,0,4.7-0.1,7.1-0.3c2.3-0.2,4.5-0.5,6.6-0.8v43.7h6.6v2.7H276.9z  "/>
<path class="st0" d="M316.8,304.8L316.8,304.8V318c0,4,1.2,7.2,3.7,9.8c2.5,2.6,5.6,3.9,9.2,3.9c4.1,0,7-1.6,8.7-4.8  c1.7-3.2,2.5-8.8,2.5-16.9c0-7.9-0.8-13.3-2.5-16.3c-1.7-3-4.6-4.4-8.8-4.4c-3.6,0-6.7,1.5-9.2,4.4  C318.1,296.7,316.8,300.4,316.8,304.8 M301.8,333.1v-2.5h6.5v-73.2h-6.2v-2.2c2.4-0.1,4.8-0.3,7.2-0.5c2.4-0.2,5-0.4,7.7-0.8v41.7  c1.4-3,3.2-5.2,5.5-6.7c2.3-1.4,5.1-2.1,8.4-2.1c5.7,0,10.5,2.3,14.4,6.8c4,4.6,5.9,10.2,5.9,16.8c0,6.8-2,12.5-5.9,17  c-4,4.6-8.9,6.8-14.8,6.8c-3.3,0-6.1-0.7-8.5-2.2c-2.4-1.5-4.3-3.7-5.7-6.6v8.8c-2.1-0.3-4.4-0.6-6.8-0.7  C307.1,333.4,304.6,333.2,301.8,333.1z"/>
<path class="st0" d="M350.8,333.2v-2.7h8.3v-73h-8.5v-2.3c3-0.1,6-0.2,8.9-0.4c2.9-0.2,5.8-0.5,8.7-0.8v76.5h8.6v2.7H350.8z"/>
<path class="st0" d="M385.1,303.6L385.1,303.6h21.3v-1.2c0-4.8-0.8-8.3-2.3-10.4c-1.5-2.1-4-3.2-7.5-3.2c-3.6,0-6.3,1.2-8.2,3.7  C386.5,295,385.4,298.7,385.1,303.6 M384.7,306.9v3.5c0,7.8,1,13.3,2.9,16.4s5.3,4.7,10.1,4.7c4,0,7.5-1.1,10.3-3.4  c2.8-2.3,4.8-5.4,5.8-9.5h2.5c-1.1,5.3-3.3,9.3-6.7,12c-3.4,2.7-7.8,4-13.3,4c-6.3,0-11.5-2.2-15.8-6.6c-4.3-4.4-6.4-9.8-6.4-16.1  c0-7,2.2-12.9,6.5-17.8c4.3-4.9,9.7-7.3,16-7.3c5.9,0,10.5,1.7,13.9,5.2c3.4,3.5,5.4,8.5,5.9,15H384.7z"/>
<path class="st0" d="M439.2,333.7c-0.3-21.2-2.6-41.7-5.3-61.5c-0.5-3.5-0.7-5.6-0.7-6.2c0-4,0.6-7,1.7-9.1c1.1-2.1,3.6-3.9,5.7-3.9  c2.1,0,4.6,1.8,5.7,3.9c1.1,2.1,1.7,5.1,1.7,9.1c0,0.7-0.2,2.7-0.7,6.2c-2.7,19.9-5,40.4-5.3,61.5H439.2z"/>
<path class="st0" d="M450.6,333.2v-2.7h6.1v-40.1h-6.2v-2.5h2.1c2.3,0,4.5-0.1,6.7-0.3c2.1-0.2,4.2-0.5,6-0.8l0.1,13.2  c1.6-4.4,3.9-7.7,6.7-9.9c2.8-2.2,6.2-3.3,10.1-3.3c4,0,7.1,1.1,9.3,3.3c2.2,2.2,3.3,5.3,3.3,9.3v31.1h5.9v2.7h-21.1v-2.7h6.4V299  c0-3-0.6-5.2-1.7-6.6c-1.1-1.4-2.9-2.2-5.3-2.2c-3.7,0-6.8,1.9-9.5,5.7c-2.7,3.8-4,8.5-4,14v20.5h6v2.7H450.6z"/>
<path class="st0" d="M534.6,319.3L534.6,319.3v-15.9c0-3.7-1.3-7-4-9.7c-2.6-2.8-5.8-4.2-9.3-4.2c-4.1,0-7,1.6-8.7,4.8  c-1.7,3.2-2.6,8.6-2.6,16.2c0,8,0.9,13.6,2.7,16.8c1.8,3.2,4.8,4.8,8.9,4.8c3.3,0,6.3-1.3,8.9-4  C533.3,325.4,534.6,322.5,534.6,319.3 M543.4,253.9v76.5h6.2v2.7c-3.4,0-6.3,0.1-8.6,0.3c-2.3,0.2-4.4,0.5-6.2,0.9v-8.4  c-1.5,2.8-3.5,4.9-6,6.4c-2.5,1.5-5.3,2.3-8.3,2.3c-5.8,0-10.7-2.3-14.7-6.9c-4-4.6-6-10.3-6-17.1c0-6.7,2-12.4,6-16.9  c4-4.6,8.9-6.8,14.8-6.8c3.3,0,6.1,0.7,8.5,2.2c2.4,1.5,4.2,3.7,5.5,6.6v-38.2h-7.4v-2.4h1.8c2.4,0,4.8-0.1,7.1-0.3  C538.5,254.6,540.9,254.3,543.4,253.9z"/>
<path class="st0" d="M552.3,333.2v-2.7h7.7v-40.1h-7.2v-2.5h2.2c2.4,0,4.7-0.1,7.1-0.3c2.3-0.2,4.6-0.5,6.6-0.8v43.7h6.6v2.7H552.3z  "/>
<path class="st0" d="M604.1,309.4L604.1,309.4c-6.3,0-11.2,1-14.5,3c-3.4,2-5,4.9-5,8.7c0,2.7,0.8,4.9,2.3,6.5  c1.6,1.6,3.6,2.4,6.2,2.4c3.2,0,5.9-0.9,7.9-2.6c2.1-1.7,3.1-4,3.1-6.8V309.4z M604.4,326.8c-1.4,2.4-3.6,4.2-6.5,5.7  c-2.9,1.4-6,2.1-9.4,2.1c-3.9,0-6.9-1-9.1-2.9c-2.2-1.9-3.4-4.5-3.4-7.7c0-5.3,2.5-9.5,7.5-12.5c5-3.1,11.9-4.6,20.7-4.7v-11.1  c0-2.3-0.7-4-2.2-5c-1.5-1.1-3.7-1.6-6.7-1.6c-2.4,0-4.5,0.4-6.4,1.3c-1.8,0.9-2.8,1.8-2.8,2.7c0,0.1,0.5,0.8,1.6,1.8  c1.1,1.1,1.6,2.3,1.6,3.6c0,1.5-0.4,2.7-1.3,3.6c-0.9,0.9-1.9,1.4-3.3,1.4c-1.5,0-2.7-0.5-3.5-1.5c-0.9-1-1.3-2.4-1.3-4.1  c0-3.2,1.7-5.9,5-8c3.3-2.1,7.6-3.2,12.9-3.2c5.6,0,9.5,0.9,11.7,2.8c2.3,1.8,3.4,5.1,3.4,9.8v25.9c0,1.8,0.2,3,0.5,3.6  c0.3,0.6,0.9,0.8,1.8,0.8c0.9,0,1.8-0.4,2.5-1.2c0.7-0.8,1.2-1.8,1.5-3h1.8c-0.2,2.7-1.2,4.9-2.9,6.6c-1.7,1.7-3.9,2.5-6.4,2.5  c-2.2,0-3.9-0.6-5.1-1.9C605.3,331.3,604.6,329.4,604.4,326.8z"/>
<path class="st1" d="M451.4,353.5c0-5.8-4.8-10.5-10.8-10.5s-10.8,4.7-10.8,10.5c0,5.8,4.8,10.5,10.8,10.5S451.4,359.3,451.4,353.5"/>
<path class="st0" d="M312.4,357.3c0-0.8,0.3-1.4,0.8-2c0.5-0.5,1.2-0.8,2-0.8c0.8,0,1.4,0.3,2,0.8c0.5,0.6,0.8,1.2,0.8,2  c0,0.8-0.3,1.5-0.8,2c-0.5,0.5-1.2,0.8-2,0.8c-0.8,0-1.5-0.3-2-0.8C312.7,358.8,312.4,358.1,312.4,357.3 M312.4,381.7  c0.1-1.9,0.2-3.5,0.2-4.9c0-1.4,0.1-2.7,0.1-3.9c0-1.4,0-2.8-0.1-4.3c-0.1-1.5-0.1-3-0.2-4.6c0.4,0,0.9,0.1,1.3,0.1  c0.5,0,0.9,0,1.4,0c0.5,0,1,0,1.4,0c0.5,0,0.9,0,1.3-0.1c-0.1,1.6-0.1,3.1-0.2,4.6c0,1.5-0.1,2.9-0.1,4.3c0,1.2,0,2.5,0.1,3.9  c0,1.4,0.1,3,0.2,4.9c-0.5-0.1-0.9-0.1-1.4-0.1c-0.4,0-0.9,0-1.3,0c-0.4,0-0.9,0-1.3,0C313.4,381.6,312.9,381.7,312.4,381.7z   M300.2,365.9c-1.3,0-2.2,0.6-2.8,1.8c-0.6,1.2-0.9,3.1-0.9,5.7c0,2.3,0.3,4,0.8,5c0.6,1,1.5,1.6,2.7,1.6c1.2,0,2.1-0.6,2.7-1.8  c0.6-1.2,0.9-2.9,0.9-5.1c0-2.4-0.3-4.2-0.8-5.4C302.2,366.5,301.3,365.9,300.2,365.9z M303.6,381.7c0-0.3,0-0.6,0-0.9  c0-0.4,0-0.9,0-1.6c-0.6,1-1.3,1.8-2.1,2.3c-0.9,0.5-1.9,0.7-3.2,0.7c-2.4,0-4.3-0.8-5.5-2.3c-1.2-1.5-1.8-3.8-1.8-6.8  c0-3,0.7-5.3,2-7c1.3-1.7,3.2-2.5,5.6-2.5c1,0,1.9,0.2,2.7,0.6c0.8,0.4,1.5,1,2.1,1.8v-4.6c0-1.5,0-2.9,0-4.1c0-1.2-0.1-2.3-0.1-3.4  c0.4,0.1,0.9,0.1,1.3,0.1c0.4,0,0.9,0,1.4,0c0.5,0,1,0,1.4,0c0.5,0,0.9-0.1,1.3-0.1c-0.1,1.6-0.2,3.5-0.3,5.6  c-0.1,2.1-0.1,4.9-0.1,8.5c0,2.9,0,5.4,0.1,7.7c0.1,2.3,0.1,4.3,0.2,6c-0.4-0.1-0.9-0.1-1.3-0.2c-0.4,0-0.9-0.1-1.3-0.1  c-0.4,0-0.9,0-1.3,0.1C304.5,381.6,304.1,381.7,303.6,381.7z M271.8,381.7c0.1-1.6,0.2-3.2,0.2-4.6c0-1.5,0.1-2.9,0.1-4.2  c0-1.5,0-3-0.1-4.5c-0.1-1.5-0.1-2.9-0.2-4.4c0.4,0.1,0.8,0.1,1.2,0.1c0.4,0,0.9,0,1.3,0s0.9,0,1.3,0c0.4,0,0.8-0.1,1.1-0.1v2.5  c0.8-1,1.6-1.7,2.5-2.2c0.9-0.5,2-0.7,3.2-0.7c0.9,0,1.7,0.2,2.5,0.5c0.8,0.3,1.4,0.7,1.9,1.3c0.4,0.5,0.7,1.1,0.9,1.8  c0.2,0.7,0.3,1.9,0.3,3.6c0,0.2,0,0.9,0,1.9c0,1,0,1.9,0,2.7c0,1.2,0,2.2,0.1,3.3c0,1,0.1,2,0.2,3c-0.5-0.1-1-0.1-1.5-0.1  c-0.4,0-0.9,0-1.3,0s-0.9,0-1.3,0c-0.4,0-0.9,0.1-1.4,0.1c0.1-1,0.2-2.3,0.2-3.8c0.1-1.5,0.1-3.1,0.1-4.9c0-2.7-0.2-4.4-0.6-5.2  c-0.4-0.8-1.2-1.2-2.3-1.2c-1.1,0-1.9,0.5-2.4,1.4c-0.5,0.9-0.7,2.5-0.7,4.7c0,1,0,2.3,0,3.8c0,1.5,0.1,3.2,0.1,5.1  c-0.5-0.1-0.9-0.1-1.4-0.1c-0.4,0-0.9,0-1.3,0c-0.4,0-0.8,0-1.3,0C272.7,381.6,272.3,381.7,271.8,381.7z M262.6,357.3  c0-0.8,0.3-1.4,0.8-2c0.5-0.5,1.2-0.8,2-0.8c0.8,0,1.4,0.3,2,0.8c0.5,0.6,0.8,1.2,0.8,2c0,0.8-0.3,1.5-0.8,2c-0.5,0.5-1.2,0.8-2,0.8  c-0.8,0-1.5-0.3-2-0.8C262.9,358.8,262.6,358.1,262.6,357.3z M262.7,381.7c0.1-1.9,0.2-3.5,0.2-4.9c0-1.4,0.1-2.7,0.1-3.9  c0-1.4,0-2.8-0.1-4.3c0-1.5-0.1-3-0.2-4.6c0.4,0,0.9,0.1,1.3,0.1c0.5,0,0.9,0,1.4,0c0.5,0,1,0,1.4,0c0.5,0,0.9,0,1.3-0.1  c-0.1,1.6-0.2,3.1-0.2,4.6c0,1.5-0.1,2.9-0.1,4.3c0,1.2,0,2.5,0.1,3.9c0,1.4,0.1,3,0.2,4.9c-0.5-0.1-0.9-0.1-1.4-0.1  c-0.4,0-0.9,0-1.4,0c-0.4,0-0.9,0-1.3,0C263.6,381.6,263.1,381.7,262.7,381.7z M248.9,371.1h6.3c0-0.1,0-0.3,0-0.5  c0-0.2,0-0.3,0-0.4c0-1.7-0.2-2.9-0.7-3.8c-0.5-0.9-1.2-1.3-2.2-1.3c-1.1,0-1.9,0.5-2.5,1.5c-0.6,1-0.9,2.4-0.9,4.2V371.1z   M248.9,372.9c0,2.1,0.5,3.8,1.5,5.1c1,1.3,2.4,1.9,4.1,1.9c0.9,0,1.7-0.1,2.5-0.4c0.8-0.3,1.5-0.7,2.3-1.3l0.4,0.3l-0.8,2.1  c-0.8,0.5-1.7,1-2.7,1.3c-1,0.3-2.2,0.4-3.4,0.4c-2.9,0-5.1-0.8-6.8-2.5c-1.6-1.7-2.5-4-2.5-7c0-2.7,0.8-4.9,2.4-6.5  c1.6-1.7,3.8-2.5,6.5-2.5c2.5,0,4.5,0.7,5.9,2.1c1.3,1.4,2,3.4,2,6.1c0,0.3,0,0.6,0,0.7c0,0.2,0,0.3,0,0.4L248.9,372.9z   M235.6,381.7c0.1-2.1,0.2-4.3,0.2-6.5c0.1-2.3,0.1-4.7,0.1-7.3c0-2.8,0-5.3-0.1-7.5c0-2.3-0.1-4.4-0.2-6.4c0.6,0.1,1.1,0.2,1.5,0.2  c0.4,0,0.8,0.1,1.2,0.1c0.4,0,0.8,0,1.3-0.1c0.4,0,0.9-0.1,1.5-0.2c-0.1,2.1-0.2,4.3-0.2,6.5c-0.1,2.3-0.1,4.7-0.1,7.3  c0,2.8,0,5.3,0.1,7.5c0,2.3,0.1,4.4,0.2,6.4c-0.4-0.1-0.8-0.2-1.3-0.2c-0.5,0-0.9-0.1-1.4-0.1c-0.5,0-1,0-1.4,0.1  C236.5,381.6,236.1,381.6,235.6,381.7z M215.3,381.7c0.1-1.6,0.2-3.5,0.3-5.7c0.1-2.2,0.1-4.9,0.1-8.2c0-3.3,0-6-0.1-8.2  c-0.1-2.2-0.1-4.1-0.3-5.7c0.6,0.1,1.1,0.2,1.6,0.2c0.4,0,0.8,0.1,1.2,0.1c0.4,0,0.8,0,1.2-0.1c0.4,0,0.9-0.1,1.5-0.2  c-0.1,1.1-0.1,2.2-0.1,3.1c0,0.9,0,1.9,0,2.7v6c0.7-0.8,1.4-1.4,2.2-1.7c0.8-0.4,1.8-0.5,2.9-0.5c2.2,0,3.9,0.8,5.2,2.4  c1.3,1.6,1.9,3.7,1.9,6.4c0,3-0.8,5.4-2.3,7.2c-1.5,1.8-3.5,2.7-6.1,2.7c-1.1,0-2.1-0.2-2.9-0.6c-0.8-0.4-1.6-1.1-2.4-1.9  c-0.6,0.3-1.2,0.6-1.7,1c-0.5,0.3-1,0.7-1.5,1.1H215.3z M224.1,365.8c-1.3,0-2.2,0.6-2.8,1.7c-0.6,1.1-0.8,3.1-0.8,5.9  c0,2.6,0.3,4.4,0.8,5.4c0.5,1.1,1.4,1.6,2.6,1.6c1.3,0,2.2-0.6,2.8-1.8c0.6-1.2,0.9-3.2,0.9-6c0-2.5-0.3-4.2-0.8-5.2  C226.2,366.3,225.3,365.8,224.1,365.8z M206,357.3c0-0.8,0.3-1.4,0.8-2c0.5-0.5,1.2-0.8,2-0.8c0.8,0,1.4,0.3,2,0.8  c0.5,0.6,0.8,1.2,0.8,2c0,0.8-0.3,1.5-0.8,2c-0.5,0.5-1.2,0.8-2,0.8c-0.8,0-1.5-0.3-2-0.8C206.3,358.8,206,358.1,206,357.3z   M206,381.7c0.1-1.9,0.2-3.5,0.2-4.9c0-1.4,0.1-2.7,0.1-3.9c0-1.4,0-2.8-0.1-4.3c-0.1-1.5-0.1-3-0.2-4.6c0.4,0,0.9,0.1,1.3,0.1  c0.5,0,0.9,0,1.4,0c0.5,0,1,0,1.4,0c0.5,0,0.9,0,1.3-0.1c-0.1,1.6-0.1,3.1-0.2,4.6c0,1.5-0.1,2.9-0.1,4.3c0,1.2,0,2.5,0.1,3.9  c0,1.4,0.1,3,0.2,4.9c-0.5-0.1-0.9-0.1-1.4-0.1c-0.4,0-0.9,0-1.3,0c-0.4,0-0.9,0-1.3,0C207,381.6,206.5,381.7,206,381.7z   M193.8,365.9c-1.3,0-2.2,0.6-2.8,1.8c-0.6,1.2-0.9,3.1-0.9,5.7c0,2.3,0.3,4,0.8,5c0.6,1,1.5,1.6,2.7,1.6c1.2,0,2.1-0.6,2.7-1.8  c0.6-1.2,0.9-2.9,0.9-5.1c0-2.4-0.3-4.2-0.8-5.4C195.8,366.5,194.9,365.9,193.8,365.9z M197.2,381.7c0-0.3,0-0.6,0-0.9  c0-0.4,0-0.9,0-1.6c-0.6,1-1.3,1.8-2.1,2.3c-0.9,0.5-1.9,0.7-3.2,0.7c-2.4,0-4.3-0.8-5.5-2.3c-1.2-1.5-1.8-3.8-1.8-6.8  c0-3,0.7-5.3,2-7c1.4-1.7,3.2-2.5,5.6-2.5c1,0,1.9,0.2,2.7,0.6c0.8,0.4,1.5,1,2.1,1.8v-4.6c0-1.5,0-2.9,0-4.1c0-1.2-0.1-2.3-0.1-3.4  c0.4,0.1,0.9,0.1,1.3,0.1c0.4,0,0.9,0,1.4,0c0.5,0,1,0,1.4,0c0.5,0,0.9-0.1,1.3-0.1c-0.1,1.6-0.2,3.5-0.3,5.6  c-0.1,2.1-0.1,4.9-0.1,8.5c0,2.9,0,5.4,0.1,7.7c0.1,2.3,0.1,4.3,0.2,6c-0.4-0.1-0.9-0.1-1.3-0.2c-0.4,0-0.9-0.1-1.3-0.1  c-0.4,0-0.9,0-1.3,0.1C198.1,381.6,197.7,381.7,197.2,381.7z M171.8,371.1h6.3c0-0.1,0-0.3,0-0.5c0-0.2,0-0.3,0-0.4  c0-1.7-0.2-2.9-0.7-3.8c-0.5-0.9-1.2-1.3-2.2-1.3c-1.1,0-1.9,0.5-2.5,1.5c-0.6,1-0.9,2.4-0.9,4.2V371.1z M171.8,372.9  c0,2.1,0.5,3.8,1.5,5.1c1,1.3,2.4,1.9,4.1,1.9c0.9,0,1.7-0.1,2.5-0.4c0.8-0.3,1.5-0.7,2.3-1.3l0.4,0.3l-0.8,2.1  c-0.8,0.5-1.7,1-2.7,1.3c-1,0.3-2.2,0.4-3.4,0.4c-2.9,0-5.1-0.8-6.8-2.5c-1.6-1.7-2.5-4-2.5-7c0-2.7,0.8-4.9,2.4-6.5  c1.6-1.7,3.8-2.5,6.5-2.5c2.5,0,4.5,0.7,5.9,2.1c1.3,1.4,2,3.4,2,6.1c0,0.3,0,0.6,0,0.7c0,0.2,0,0.3,0,0.4L171.8,372.9z   M154.5,381.7c0.1-1.2,0.2-2.6,0.2-4c0-1.5,0.1-3.1,0.1-4.9c0-2.2,0-4-0.1-5.3c0-1.3-0.1-2.5-0.2-3.5c0.4,0.1,0.8,0.1,1.2,0.1  c0.4,0,0.9,0,1.4,0s0.9,0,1.4,0c0.4,0,0.8-0.1,1.2-0.1c-0.1,1.1-0.1,2.1-0.1,2.8c0,0.7,0,1.4,0,1.9h0.2c0.4-1.7,1.1-3,2.1-3.9  c1-0.9,2.2-1.3,3.6-1.3h0.2c-0.1,0.4-0.1,0.9-0.2,1.3c0,0.4-0.1,0.9-0.1,1.3c0,0.4,0,0.9,0.1,1.4c0,0.5,0.1,0.9,0.2,1.4  c-0.5-0.2-1-0.3-1.4-0.4c-0.4-0.1-0.7-0.1-1-0.1c-1.2,0-2.1,0.4-2.7,1.3c-0.6,0.8-0.8,2.2-0.8,4c0,1.4,0,2.8,0.1,4.2  c0.1,1.3,0.1,2.6,0.2,3.9c-0.5-0.1-1-0.1-1.4-0.1c-0.4,0-0.9,0-1.3,0c-0.4,0-0.8,0-1.3,0C155.5,381.6,155.1,381.7,154.5,381.7z   M152.1,378.2l0.3,0.2c-0.1,0.6-0.1,1-0.2,1.3c0,0.3-0.1,0.5-0.1,0.8c-0.8,0.6-1.7,1-2.7,1.2c-0.9,0.3-1.9,0.4-3,0.4  c-2.9,0-5.2-0.8-6.9-2.5c-1.7-1.6-2.6-3.9-2.6-6.7c0-2.8,0.9-5.1,2.6-6.8c1.7-1.7,4-2.6,6.9-2.6c1.3,0,2.5,0.1,3.5,0.4  c1.1,0.3,2,0.7,2.8,1.2c-0.4,0.9-0.7,1.6-0.9,2.2c-0.2,0.6-0.4,1.1-0.5,1.6l-0.5-0.2c-0.3-1.2-0.8-2-1.5-2.6  c-0.7-0.6-1.5-0.8-2.5-0.8c-1.4,0-2.6,0.6-3.4,1.9c-0.8,1.3-1.3,3.1-1.3,5.3c0,2.4,0.5,4.3,1.4,5.6c0.9,1.3,2.3,1.9,4,1.9  c0.8,0,1.6-0.1,2.3-0.4C150.7,379.2,151.4,378.8,152.1,378.2z M118.2,381.7c0.1-1.6,0.2-3.2,0.2-4.6c0-1.5,0.1-2.9,0.1-4.2  c0-1.5,0-3-0.1-4.5c-0.1-1.5-0.1-2.9-0.2-4.4c0.4,0.1,0.8,0.1,1.2,0.1c0.4,0,0.9,0,1.3,0s0.9,0,1.3,0c0.4,0,0.8-0.1,1.1-0.1v2.5  c0.8-1,1.6-1.7,2.5-2.2c0.9-0.5,2-0.7,3.2-0.7c0.9,0,1.7,0.2,2.5,0.5c0.7,0.3,1.4,0.7,1.9,1.3c0.4,0.5,0.7,1.1,0.9,1.8  c0.2,0.7,0.3,1.9,0.3,3.6c0,0.2,0,0.9,0,1.9c0,1,0,1.9,0,2.7c0,1.2,0,2.2,0.1,3.3c0,1,0.1,2,0.2,3c-0.5-0.1-1-0.1-1.5-0.1  c-0.4,0-0.9,0-1.3,0s-0.9,0-1.3,0c-0.4,0-0.9,0.1-1.4,0.1c0.1-1,0.2-2.3,0.2-3.8c0.1-1.5,0.1-3.1,0.1-4.9c0-2.7-0.2-4.4-0.6-5.2  c-0.4-0.8-1.2-1.2-2.3-1.2c-1.1,0-1.9,0.5-2.4,1.4c-0.5,0.9-0.7,2.5-0.7,4.7c0,1,0,2.3,0,3.8c0,1.5,0.1,3.2,0.1,5.1  c-0.5-0.1-0.9-0.1-1.3-0.1s-0.9,0-1.3,0c-0.4,0-0.8,0-1.3,0C119.1,381.6,118.7,381.7,118.2,381.7z M109,357.3c0-0.8,0.3-1.4,0.8-2  c0.5-0.5,1.2-0.8,2-0.8c0.8,0,1.4,0.3,2,0.8c0.5,0.6,0.8,1.2,0.8,2c0,0.8-0.3,1.5-0.8,2c-0.5,0.5-1.2,0.8-2,0.8  c-0.8,0-1.5-0.3-2-0.8C109.3,358.8,109,358.1,109,357.3z M109,381.7c0.1-1.9,0.2-3.5,0.2-4.9c0-1.4,0.1-2.7,0.1-3.9  c0-1.4,0-2.8-0.1-4.3c-0.1-1.5-0.1-3-0.2-4.6c0.4,0,0.9,0.1,1.3,0.1c0.5,0,0.9,0,1.4,0s1,0,1.4,0c0.5,0,0.9,0,1.3-0.1  c-0.1,1.6-0.2,3.1-0.2,4.6c0,1.5-0.1,2.9-0.1,4.3c0,1.2,0,2.5,0.1,3.9c0,1.4,0.1,3,0.2,4.9c-0.5-0.1-0.9-0.1-1.4-0.1  c-0.5,0-0.9,0-1.4,0c-0.4,0-0.9,0-1.3,0C110,381.6,109.5,381.7,109,381.7z M99.6,379.1c0-0.8,0.3-1.5,0.9-2.1  c0.6-0.6,1.3-0.9,2.2-0.9c0.8,0,1.6,0.3,2.1,0.9c0.6,0.6,0.9,1.3,0.9,2.1c0,0.8-0.3,1.5-0.9,2.1c-0.6,0.6-1.3,0.9-2.1,0.9  c-0.8,0-1.6-0.3-2.1-0.9C99.9,380.7,99.6,380,99.6,379.1z M78.5,381.7c-0.7-2.6-1.6-5.3-2.5-8.2c-0.9-2.9-1.9-6-3.1-9.5  c0.4,0.1,0.8,0.1,1.3,0.1c0.4,0,0.9,0,1.5,0c0.5,0,1,0,1.4,0c0.4,0,0.9-0.1,1.3-0.1c0.8,2.7,1.4,5.1,2,7.1c0.6,2,1.1,3.8,1.6,5.4  c0.7-2.2,1.4-4.4,2-6.5c0.6-2.1,1.2-4.1,1.7-6c0.3,0.1,0.6,0.1,1,0.1c0.4,0,0.7,0,1.1,0c0.4,0,0.8,0,1.1,0c0.4,0,0.7-0.1,1-0.1  c0.5,1.9,1.1,3.9,1.7,6c0.6,2.1,1.2,4.3,1.9,6.5c0.8-2.6,1.5-4.9,2.1-6.9c0.6-2,1.2-3.9,1.6-5.6c0.2,0.1,0.4,0.1,0.7,0.1  c0.2,0,0.5,0,0.8,0c0.3,0,0.5,0,0.7,0c0.2,0,0.4-0.1,0.7-0.1c-1.1,2.9-2.1,5.8-3.1,8.7c-1,3-2,5.9-2.9,9c-0.4-0.1-0.7-0.1-1-0.1  c-0.3,0-0.7,0-1,0c-0.3,0-0.6,0-1,0c-0.3,0-0.7,0.1-1.1,0.1c-0.5-1.7-1-3.5-1.6-5.4c-0.6-1.9-1.3-4.1-2.1-6.6  c-0.6,1.9-1.2,3.9-1.8,5.9c-0.6,2-1.2,4-1.9,6.1c-0.4,0-0.7-0.1-1.1-0.1c-0.3,0-0.7,0-1,0c-0.3,0-0.6,0-1,0  C79.3,381.6,78.9,381.7,78.5,381.7z M52.6,381.7c-0.7-2.6-1.6-5.3-2.5-8.2c-0.9-2.9-1.9-6-3.1-9.5c0.4,0.1,0.8,0.1,1.3,0.1  c0.4,0,0.9,0,1.4,0c0.5,0,1,0,1.4,0c0.4,0,0.9-0.1,1.3-0.1c0.8,2.7,1.4,5.1,2,7.1c0.6,2,1.1,3.8,1.6,5.4c0.7-2.2,1.4-4.4,2-6.5  c0.6-2.1,1.2-4.1,1.7-6c0.3,0.1,0.6,0.1,1,0.1c0.4,0,0.7,0,1.1,0c0.4,0,0.8,0,1.1,0c0.4,0,0.7-0.1,1-0.1c0.5,1.9,1.1,3.9,1.7,6  c0.6,2.1,1.2,4.3,1.9,6.5c0.8-2.6,1.5-4.9,2.1-6.9c0.6-2,1.2-3.9,1.6-5.6c0.2,0.1,0.4,0.1,0.7,0.1c0.2,0,0.5,0,0.8,0  c0.3,0,0.5,0,0.7,0c0.2,0,0.5-0.1,0.7-0.1c-1.1,2.9-2.1,5.8-3.1,8.7c-1,3-2,5.9-2.9,9c-0.4-0.1-0.7-0.1-1-0.1c-0.3,0-0.7,0-1,0  c-0.3,0-0.6,0-1,0c-0.3,0-0.7,0.1-1.1,0.1c-0.5-1.7-1-3.5-1.6-5.4c-0.6-1.9-1.3-4.1-2.1-6.6c-0.6,1.9-1.2,3.9-1.8,5.9  c-0.6,2-1.2,4-1.9,6.1c-0.4,0-0.7-0.1-1.1-0.1c-0.3,0-0.7,0-1,0c-0.3,0-0.6,0-1,0C53.3,381.6,53,381.7,52.6,381.7z M26.6,381.7  c-0.7-2.6-1.6-5.3-2.5-8.2c-0.9-2.9-1.9-6-3.1-9.5c0.4,0.1,0.8,0.1,1.3,0.1c0.4,0,0.9,0,1.4,0c0.5,0,1,0,1.4,0  c0.4,0,0.9-0.1,1.3-0.1c0.8,2.7,1.4,5.1,2,7.1c0.6,2,1.1,3.8,1.6,5.4c0.7-2.2,1.4-4.4,2-6.5c0.6-2.1,1.2-4.1,1.7-6  c0.3,0.1,0.6,0.1,1,0.1c0.4,0,0.7,0,1.1,0c0.4,0,0.8,0,1.1,0c0.4,0,0.7-0.1,1-0.1c0.5,1.9,1.1,3.9,1.7,6c0.6,2.1,1.2,4.3,1.9,6.5  c0.8-2.6,1.5-4.9,2.1-6.9c0.6-2,1.2-3.9,1.6-5.6c0.2,0.1,0.4,0.1,0.7,0.1c0.2,0,0.5,0,0.8,0c0.3,0,0.5,0,0.7,0  c0.2,0,0.4-0.1,0.7-0.1c-1.1,2.9-2.1,5.8-3.1,8.7c-1,3-2,5.9-2.9,9c-0.4-0.1-0.7-0.1-1-0.1c-0.3,0-0.7,0-1,0c-0.3,0-0.6,0-1,0  c-0.3,0-0.7,0.1-1.1,0.1c-0.5-1.7-1-3.5-1.6-5.4c-0.6-1.9-1.3-4.1-2.1-6.6c-0.6,1.9-1.2,3.9-1.8,5.9c-0.6,2-1.2,4-1.9,6.1  c-0.4,0-0.7-0.1-1.1-0.1c-0.3,0-0.7,0-1,0c-0.3,0-0.6,0-1,0C27.4,381.6,27,381.7,26.6,381.7z"/>
<path class="st0" d="M385.3,369.4c0,1.5,0.2,2.6,0.7,3.3c0.4,0.7,1.1,1.1,2.1,1.1c1,0,1.7-0.4,2.1-1.1c0.4-0.7,0.7-2,0.7-3.7  c0-1.3-0.2-2.3-0.7-3c-0.4-0.6-1.1-1-2-1c-0.9,0-1.6,0.4-2.1,1.1C385.5,366.9,385.3,368,385.3,369.4 M383.6,382.6l0-0.3  c-0.7-0.2-1.3-0.6-1.7-1.1c-0.4-0.5-0.6-1.1-0.6-1.8c0-0.8,0.3-1.6,1-2.3c0.6-0.7,1.6-1.3,2.8-1.8v-0.4c-1.6-0.3-2.8-0.9-3.6-1.8  c-0.8-0.9-1.2-2-1.2-3.5c0-1.8,0.7-3.2,2.1-4.3c1.4-1.1,3.2-1.6,5.6-1.6c0.2,0,1,0.1,2.5,0.2c1.4,0.1,2.8,0.1,4,0.1c0.5,0,1,0,1.6,0  c0.6,0,1.1,0,1.8-0.1v1.8c-0.8,0-1.8-0.1-3.1-0.1c-0.3,0-0.4,0-0.6,0c0.6,0.4,1.1,0.9,1.4,1.6c0.3,0.6,0.5,1.4,0.5,2.2  c0,1.9-0.7,3.4-2.2,4.5c-1.5,1.1-3.5,1.6-6.1,1.6h-0.6c-0.5,0-0.9,0.2-1.2,0.6c-0.3,0.3-0.5,0.7-0.5,1.2c0,1.1,1.7,1.8,5.3,1.9h0.2  c0.1,0,0.3,0,0.4,0c2.3,0.1,3.7,0.3,4.4,0.7c0.7,0.4,1.3,1,1.7,1.8c0.4,0.7,0.6,1.6,0.6,2.6c0,2.3-0.9,4.1-2.8,5.6  c-1.9,1.4-4.3,2.2-7.3,2.2c-2.5,0-4.4-0.4-5.8-1.3c-1.4-0.9-2.1-2-2.1-3.5c0-1.1,0.3-2,0.9-2.7C381.4,383.6,382.4,383,383.6,382.6z   M385.3,382.8c-0.6,0.3-1.1,0.8-1.4,1.3c-0.3,0.6-0.5,1.2-0.5,2c0,1.3,0.4,2.3,1.3,3c0.8,0.8,2,1.1,3.4,1.1c1.7,0,3-0.4,3.9-1  c1-0.7,1.4-1.6,1.4-2.8c0-1.1-0.3-1.9-0.9-2.5c-0.6-0.5-1.6-0.8-3-0.9L385.3,382.8z M367.9,381.7c0.1-1.2,0.2-2.6,0.2-4  c0-1.5,0.1-3.1,0.1-4.9c0-2.2,0-4-0.1-5.3c0-1.3-0.1-2.5-0.2-3.5c0.4,0,0.8,0.1,1.2,0.1c0.4,0,0.9,0,1.4,0c0.5,0,0.9,0,1.4,0  c0.4,0,0.8-0.1,1.2-0.1c-0.1,1.1-0.1,2.1-0.1,2.8c0,0.7,0,1.4,0,1.9h0.2c0.4-1.7,1.1-3,2.1-3.9c1-0.9,2.2-1.3,3.6-1.3h0.2  c-0.1,0.4-0.1,0.9-0.2,1.3c0,0.4-0.1,0.9-0.1,1.3c0,0.5,0,0.9,0.1,1.4c0,0.5,0.1,0.9,0.2,1.4c-0.5-0.2-1-0.3-1.3-0.4  c-0.4-0.1-0.7-0.1-1.1-0.1c-1.2,0-2.1,0.4-2.7,1.2c-0.5,0.8-0.8,2.2-0.8,4c0,1.4,0,2.8,0.1,4.2c0.1,1.3,0.1,2.6,0.2,3.9  c-0.5,0-1-0.1-1.4-0.1c-0.4,0-0.9,0-1.3,0c-0.4,0-0.8,0-1.3,0.1C369,381.6,368.5,381.7,367.9,381.7z M352.6,372.9  c0,2.8,0.3,4.8,0.9,5.9c0.6,1.1,1.6,1.7,2.9,1.7c1.4,0,2.4-0.6,3-1.7c0.6-1.2,0.9-3.1,0.9-5.9c0-2.8-0.3-4.8-0.9-6  c-0.6-1.2-1.6-1.7-3-1.7c-1.4,0-2.3,0.6-2.9,1.7C352.9,368.1,352.6,370.1,352.6,372.9z M347.1,372.9c0-2.9,0.8-5.2,2.5-6.9  c1.6-1.6,3.9-2.5,6.8-2.5c3,0,5.3,0.8,6.9,2.4c1.6,1.6,2.4,3.9,2.4,6.9c0,2.9-0.8,5.2-2.5,6.8c-1.6,1.6-3.9,2.5-6.8,2.5  c-2.9,0-5.2-0.8-6.8-2.4C348,378.1,347.1,375.8,347.1,372.9z M339,379.1c0-0.8,0.3-1.6,0.9-2.1c0.6-0.6,1.3-0.9,2.2-0.9  c0.8,0,1.6,0.3,2.1,0.9c0.6,0.6,0.9,1.3,0.9,2.1c0,0.8-0.3,1.5-0.9,2.1c-0.6,0.6-1.3,0.9-2.1,0.9c-0.8,0-1.6-0.3-2.1-0.9  C339.3,380.7,339,380,339,379.1z M330.4,372c-1.7,0.4-3,0.9-3.7,1.6c-0.8,0.7-1.1,1.7-1.1,3c0,1.1,0.2,1.9,0.6,2.4  c0.4,0.5,1,0.8,1.7,0.8c0.8,0,1.5-0.3,1.9-0.9c0.4-0.6,0.7-1.4,0.7-2.5V372z M330.6,379.4c-0.5,0.9-1.2,1.6-2.1,2  c-0.9,0.5-1.8,0.7-2.9,0.7c-1.6,0-2.8-0.5-3.7-1.4c-0.9-0.9-1.3-2.2-1.3-3.8c0-1.2,0.3-2.1,0.9-2.9c0.6-0.8,1.6-1.4,3-1.8  c0.4-0.2,1.1-0.3,1.9-0.6c1.9-0.6,3.3-1.1,4-1.6c0-0.1,0-0.2,0-0.2c0-0.1,0-0.2,0-0.4c0-1.1-0.3-2-1-2.7c-0.6-0.7-1.5-1-2.5-1  c-0.8,0-1.6,0.2-2.3,0.7c-0.7,0.5-1.3,1.2-1.9,2.1c-0.2-0.6-0.3-1-0.4-1.4c-0.1-0.4-0.2-0.7-0.4-1c1.1-1,2.2-1.7,3.2-2.1  c1.1-0.5,2.2-0.7,3.4-0.7c2.2,0,3.9,0.5,5.1,1.5c1.2,1,1.8,2.5,1.8,4.4v0.2l-0.1,6.5v0.7c0,1.5,0.2,2.5,0.5,2.9  c0.3,0.4,1,0.6,1.9,0.6h0.1v0.9c-0.6,0.3-1.3,0.5-1.9,0.6c-0.7,0.1-1.3,0.2-1.9,0.2c-0.9,0-1.6-0.2-2.2-0.7  C331.1,380.9,330.8,380.3,330.6,379.4z"/>
</svg>